inDegrees=no
num_controls=7
num_derivatives=13
num_iterations=82
num_multipliers=7
num_parameters=0
num_slacks=7
num_states=26
objective=0.497591
objective_accelerations=0.002689
objective_balance=0.001079
objective_effort=0.004761
objective_height=0.481607
objective_ligament=0.007455
solver_duration=1141.896404
status=Solve_Succeeded
success=true
DataType=double
version=3
OpenSimVersion=4.5
endheader
time	/jointset/ground_pelvis/pelvis_tilt/value	/jointset/ground_pelvis/pelvis_tx/value	/jointset/ground_pelvis/pelvis_ty/value	/jointset/hip_l/hip_flexion_l/value	/jointset/hip_l/hip_adduction_l/value	/jointset/hip_l/hip_rotation_l/value	/jointset/back/lumbar_extension/value	/jointset/patellofemoral_l/patellar_flexion_l/value	/jointset/knee_l/knee_flexion_l/value	/jointset/knee_l/knee_adduction_l/value	/jointset/knee_l/knee_rotation_l/value	/jointset/ankle_l/ankle_angle_l/value	/jointset/subtalar_l/subtalar_angle_l/value	/jointset/ground_pelvis/pelvis_tilt/speed	/jointset/ground_pelvis/pelvis_tx/speed	/jointset/ground_pelvis/pelvis_ty/speed	/jointset/hip_l/hip_flexion_l/speed	/jointset/hip_l/hip_adduction_l/speed	/jointset/hip_l/hip_rotation_l/speed	/jointset/back/lumbar_extension/speed	/jointset/patellofemoral_l/patellar_flexion_l/speed	/jointset/knee_l/knee_flexion_l/speed	/jointset/knee_l/knee_adduction_l/speed	/jointset/knee_l/knee_rotation_l/speed	/jointset/ankle_l/ankle_angle_l/speed	/jointset/subtalar_l/subtalar_angle_l/speed	/forceset/tau_hip_flexion_l	/forceset/tau_hip_adduction_l	/forceset/tau_hip_rotation_l	/forceset/tau_knee_flexion_l	/forceset/tau_ankle_angle_l	/forceset/tau_subtalar_angle_l	/forceset/tau_lumbar_extension	lambda_cid13_p0	lambda_cid13_p1	lambda_cid13_p2	lambda_cid13_p3	lambda_cid13_p4	lambda_cid13_p5	lambda_cid14_p0	/jointset/ground_pelvis/pelvis_tilt/accel	/jointset/ground_pelvis/pelvis_tx/accel	/jointset/ground_pelvis/pelvis_ty/accel	/jointset/hip_l/hip_flexion_l/accel	/jointset/hip_l/hip_adduction_l/accel	/jointset/hip_l/hip_rotation_l/accel	/jointset/back/lumbar_extension/accel	/jointset/patellofemoral_l/patellar_flexion_l/accel	/jointset/knee_l/knee_flexion_l/accel	/jointset/knee_l/knee_adduction_l/accel	/jointset/knee_l/knee_rotation_l/accel	/jointset/ankle_l/ankle_angle_l/accel	/jointset/subtalar_l/subtalar_angle_l/accel	gamma_cid13_p0	gamma_cid13_p1	gamma_cid13_p2	gamma_cid13_p3	gamma_cid13_p4	gamma_cid13_p5	gamma_cid14_p0
1.5	-0.07494527652212078	0.14829447663902	0.9079303642362041	0.1539682167072113	-0.2409698416534115	-0.3282921288238376	-0.07522400420021394	0.0545861713452294	0.05458617134522938	0.04710302335195197	-0.158906030708332	0.08589431393779895	0.2219421948515542	-0.09288984634490807	0.001742506292773177	-0.001977850983046365	0.03785839576028943	0.03873069242838826	-0.03012592469402681	0.1302845927211798	-0.1274710491007115	-0.1274710491007125	0.03402693921491386	0.006551133522359103	-0.06225666123907961	0.01818870493914224	0.02667088343668646	0.06095486507765016	-0.006408109749337855	-0.05355925849016449	0.01448019148642908	-0.06230402312813146	0.009751621728339292	-27.30508003983371	26.83227937142487	1.160708460629704	2.305268343874895	-460.7981950420066	-24.43194106742146	-23.40414399060086	0.1315125974242614	-0.05121275922047429	0.002042517042490304	-0.02026521740503523	-0.03489637599264583	0.04036467598947592	-0.1181260134422207	0.1179742891832474	0.1179742891832467	-0.0362991822660331	-0.01637581139052502	-0.00156916874192391	-0.04226673195930316	4.058351056588387e-10	-6.827743317504618e-10	1.360880306650347e-09	-3.868287654754177e-10	2.764602297205764e-09	-8.713541157375233e-10	-1.470546654444906e-10
1.51	-0.07586754323249313	0.148309381232527	0.9079106941486147	0.1543456560431289	-0.2405842823750904	-0.3285914093169557	-0.07392716362805926	0.05331732839527094	0.05331732839527092	0.04744146461541546	-0.1588413551555105	0.0852717105114202	0.222121984212569	-0.09156024898118963	0.001241972216742679	-0.001956158537098592	0.03762624076102247	0.03837927769558089	-0.0297325036168905	0.1290755386986894	-0.1262883206637596	-0.1262883206637587	0.03366110810567828	0.006380787623916329	-0.06225467254535671	0.01777107556736454	0.02673329985370303	0.06088264258624534	-0.006399166526995795	-0.05340940407826	0.01494514573225622	-0.06238803846464858	0.009587745382978213	-27.16344820394941	26.85042684447898	1.1504383181414	2.195595803499272	-460.7938585510732	-24.42700392371628	-23.37499151222508	0.1341702390423793	-0.04893983468898409	0.002234385622138484	-0.02517527020556436	-0.0355470177267867	0.0384810794567631	-0.1234925483150729	0.1198051944784079	0.119805194478539	-0.03675579298168248	-0.01784211100955731	0.002485616204861449	-0.0412248931332986	3.467657639443987e-10	-6.603780741006371e-10	1.517930480954953e-09	-3.761236589220881e-10	2.84602855799377e-09	-9.613010749340513e-10	-1.801659704085411e-10
1.52	-0.076776416582589	0.1483193872646946	0.9078912413409351	0.1547206769032501	-0.2402022938432579	-0.3288868255481264	-0.07264265308646203	0.05206058934438739	0.0520605893443874	0.04777624142424075	-0.1587784786880612	0.08464940751753378	0.2222976545091968	-0.09021117428960272	0.0007627940249260289	-0.00193439500110285	0.0373747006010354	0.03801654313069331	-0.02935307230453562	0.1278185866096949	-0.125050269285722	-0.1250502692857212	0.03329404828727278	0.006191316447937408	-0.06219657474061522	0.01736489206173503	0.02679571627071951	0.06081042009484072	-0.006390223304653201	-0.05325954966635494	0.01541009997808334	-0.06247205380116548	0.009423869037617053	-27.0212471599122	26.86862019435993	1.139994616152139	2.085469875416261	-460.7805412018711	-24.41960053496376	-23.34593760512057	0.1354080629979489	-0.04694158237771749	0.002056735052083573	-0.02414224954891719	-0.03716034240868837	0.03756672303082889	-0.127705626743027	0.1290388773999832	0.1290388773999886	-0.03654492409955568	-0.02020086689775436	0.009652653461795347	-0.03997755872966582	3.17815624061198e-10	-6.599253444820696e-10	1.627739082570035e-09	-3.725506888828086e-10	2.931289797950625e-09	-1.024471890462812e-09	-2.013294018395304e-10
1.53	-0.07767171337306519	0.1483247150248355	0.9078720062971946	0.1550930732150067	-0.2398239994629199	-0.3291785187289069	-0.07137096156038207	0.05081648554388191	0.05081648554388191	0.04810731202296213	-0.1587175914055653	0.08402795947298634	0.2224693058696798	-0.08884616109025323	0.0003069741076761899	-0.001912665823309486	0.03710073425075439	0.03763924824017979	-0.02898789229199326	0.1265107598707823	-0.1237624477304127	-0.1237624477304119	0.03291691903292361	0.005982951776118335	-0.06208388771332747	0.01696584377675655	0.02690096760927435	0.06068817426187406	-0.006373522906339586	-0.05320506205284645	0.01599084177014155	-0.06255257702102775	0.009233929838455435	-26.84271433875961	26.88584013834814	1.121819330761963	1.950319744150502	-460.7782392811684	-24.43032241425838	-23.31700478299848	0.1373512717271268	-0.04426985646778182	0.002223811390437817	-0.02959798439006847	-0.03847694184529382	0.03564406124554653	-0.1336650077950889	0.1298603002065777	0.1298603002065825	-0.03876969476198752	-0.02163220696739355	0.01344869720580931	-0.03979900841816206	3.208671361236887e-10	-6.827876133967125e-10	1.6873535132025e-09	-3.765556138897071e-10	3.020625703274381e-09	-1.059193053344569e-09	-2.097982176416423e-10
1.54	-0.07855329936688324	0.1483256110537901	0.9078529871056813	0.1554626150319359	-0.2394495706073816	-0.329466630025386	-0.07011261706375722	0.04958550126005153	0.04958550126005155	0.04843451677540814	-0.1586588833577162	0.08340791269268054	0.2226369806383057	-0.08746901495795641	-0.0001235522123404668	-0.001891224555617949	0.03680380163557603	0.03724343817076187	-0.0286366954442666	0.1251491807186817	-0.1224263659506963	-0.1224263659506956	0.03252087903219886	0.005755469518562874	-0.06191632189229471	0.01656957369032914	0.02700621894782906	0.06056592842890757	-0.006356822508026028	-0.05315057443933813	0.01657158356219973	-0.06263310024088983	0.009043990639293719	-26.66356048348276	26.90313425936429	1.103423282975705	1.814259230864242	-460.766234820248	-24.43831529221195	-23.28821770086356	0.1378346495874132	-0.04188286293107859	0.001999153031718031	-0.0287355025286148	-0.04086337818956839	0.03477009006769236	-0.1384561093806146	0.1386909222814022	0.1386909222813771	-0.0403270733746687	-0.02402438404503139	0.0206284122111189	-0.03942191901945065	2.78991291213901e-10	-5.942469062454185e-10	1.728840267681007e-09	-3.575037229470407e-10	3.093726063103649e-09	-1.031939982365841e-09	-2.219989824192252e-10
